                  <svg
                    xmlns="http://www.w3.org/2000/svg"
                    width="17"
                    height="18"
                    viewBox="0 0 17 18"
                  >
                    <defs>
                      <style>
                        .a {
                          fill: green;
                        }
                        
                      </style>
                    </defs>
                    <path
                      class="a"
                      d="M8.139,18.158a1.421,1.421,0,1,0,1.417,1.421A1.419,1.419,0,0,0,8.139,18.158Zm9.917-2.842H6.722a.947.947,0,0,1,0-1.895h8.019a2.847,2.847,0,0,0,2.725-2.061l1.5-5.257a.947.947,0,0,0-.908-1.208H6.476A2.84,2.84,0,0,0,3.815,3h-.87a.947.947,0,0,0,0,1.895h.87a.949.949,0,0,1,.908.687L4.87,6.1v0l1.549,5.44a2.843,2.843,0,0,0,.3,5.668H18.056a.947.947,0,0,0,0-1.895ZM16.8,6.789,15.65,10.839a.949.949,0,0,1-.908.687H8.379l-.241-.845L7.031,6.789ZM15.694,18.158a1.421,1.421,0,1,0,1.417,1.421A1.419,1.419,0,0,0,15.694,18.158Z"
                      transform="translate(-2 -3)"
                    />
                  </svg>