<svg id="Component_8_6" data-name="Component 8 – 6" xmlns="http://www.w3.org/2000/svg" width="22" height="22" viewBox="0 0 22 22">
  <rect id="Rectangle_228" data-name="Rectangle 228" width="22" height="22" fill="rgba(255,255,255,0)"/>
  <path id="check-circle" d="M13.448,8.111l-3.861,3.87L8.1,10.5a.9.9,0,1,0-1.269,1.269l2.115,2.124a.9.9,0,0,0,1.269,0l4.5-4.5a.9.9,0,1,0-1.269-1.278ZM11,2a9,9,0,1,0,9,9A9,9,0,0,0,11,2Zm0,16.2A7.2,7.2,0,1,1,18.2,11,7.2,7.2,0,0,1,11,18.2Z" fill="#52ff3b"/>
</svg>
