<svg xmlns="http://www.w3.org/2000/svg" width="18" height="14" viewBox="0 0 18 14"><defs><style>.a{fill:#171717;opacity:0.3;}</style></defs><path class="a" d="M17.3,4H4.7A2.663,2.663,0,0,0,2,6.625v8.75A2.663,2.663,0,0,0,4.7,18H17.3A2.663,2.663,0,0,0,20,15.375V6.625A2.663,2.663,0,0,0,17.3,4Zm-.369,1.75-5.292,5.145a.918.918,0,0,1-1.278,0L5.069,5.75ZM18.2,15.375a.888.888,0,0,1-.9.875H4.7a.888.888,0,0,1-.9-.875V6.984l5.292,5.145a2.755,2.755,0,0,0,3.816,0L18.2,6.984Z" transform="translate(-2 -4)"/></svg>