<svg xmlns="http://www.w3.org/2000/svg" width="18" height="18" viewBox="0 0 18 18"><path d="M19.236,2.773a2.6,2.6,0,0,0-2.7-.639L3.8,6.39a2.609,2.609,0,0,0-.108,4.921l4.716,1.8h0a.837.837,0,0,1,.477.468l1.8,4.724a2.583,2.583,0,0,0,2.439,1.691h.063a2.592,2.592,0,0,0,2.421-1.8L19.866,5.445A2.6,2.6,0,0,0,19.236,2.773ZM18.2,4.878,13.9,17.636a.792.792,0,0,1-.756.558.828.828,0,0,1-.783-.522l-1.8-4.724a2.619,2.619,0,0,0-1.5-1.512l-4.725-1.8A.81.81,0,0,1,3.8,8.855.792.792,0,0,1,4.358,8.1L17.121,3.844A.819.819,0,0,1,18.2,4.878Z" transform="translate(-2.002 -1.994)"/></svg>