<svg xmlns="http://www.w3.org/2000/svg" width="15" height="18" viewBox="0 0 15 18"><defs><style>.a{fill:#171717;opacity:0.3;}</style></defs><path class="a" d="M16.326,4.225a7.429,7.429,0,0,0-10.613,0,7.692,7.692,0,0,0,0,10.767l4.661,4.738a.876.876,0,0,0,1.256,0l4.7-4.782a7.66,7.66,0,0,0,0-10.722Zm-1.265,9.439-4.042,4.118L6.977,13.664a5.856,5.856,0,0,1,0-8.2,5.656,5.656,0,0,1,8.079,0A5.856,5.856,0,0,1,15.061,13.664Zm-6.7-6.81a3.916,3.916,0,0,0,0,5.473,3.772,3.772,0,0,0,4.137.849A3.862,3.862,0,0,0,13.761,6.9a3.765,3.765,0,0,0-5.395-.045Zm4.148,4.2a2.039,2.039,0,0,1-2.6.277,2.107,2.107,0,0,1-.77-2.539,2.055,2.055,0,0,1,2.307-1.256A2.083,2.083,0,0,1,13.107,9.59a2.1,2.1,0,0,1-.637,1.463Z" transform="translate(-3.515 -1.995)"/></svg>