<svg xmlns="http://www.w3.org/2000/svg" width="14" height="18" viewBox="0 0 14 18">
  <path id="lock" d="M15.375,8.3V6.5A4.439,4.439,0,0,0,11,2,4.439,4.439,0,0,0,6.625,6.5V8.3A2.663,2.663,0,0,0,4,11v6.3A2.663,2.663,0,0,0,6.625,20h8.75A2.663,2.663,0,0,0,18,17.3V11A2.663,2.663,0,0,0,15.375,8.3Zm-7-1.8a2.626,2.626,0,1,1,5.25,0V8.3H8.375ZM16.25,17.3a.888.888,0,0,1-.875.9H6.625a.888.888,0,0,1-.875-.9V11a.888.888,0,0,1,.875-.9h8.75a.888.888,0,0,1,.875.9Z" transform="translate(-4 -2)" fill="#d0d0d0"/>
</svg>
