<svg id="Logo" xmlns="http://www.w3.org/2000/svg" width="99" height="60" viewBox="0 0 99 60">
  <path id="Path_1" data-name="Path 1" d="M2888.755,2389.112a0,0,0,0,0,0,0l0,0m.425-.012.179-.007.018.007a.045.045,0,0,0,.015.01l.01.007.015.013a.185.185,0,0,1,.034.034.024.024,0,0,0,0,.01l0,.012,0,0,0,.01c0,.03.005.06.008.089l0,.15.005.295.012.585.01.437-.71.015-.012-.179c-.008-.062-.008-.143-.01-.214l-.005-.224-.022-.833s0-.034,0-.031v-.037l0-.128s0,0,.01,0v0h.005a.259.259,0,0,1,.042-.008l.032,0h.027l.091,0,.182-.007h.035m2.956,12.659h-.015m0,0q-2.186.023-4.37.069l-2.185.046a1,1,0,0,1-.833-.28.882.882,0,0,1-.128-.433c0-.086-.017-.165-.014-.258l-.005-.14c0-.047,0-.1-.007-.146l-.1-3-.059-1.521-.064-1.521-.155-3.04-.093-1.522-.057-.767c-.019-.253-.034-.5-.046-.75-.02.406-.054.816-.086,1.241-.015.212-.027.421-.039.627l-.039.624c-.052.831-.089,1.664-.133,2.495-.089,1.664-.15,3.328-.209,4.992l-.081,2.5.008.33a2.3,2.3,0,0,0,.039.334,1.914,1.914,0,0,0,.249.642,1.472,1.472,0,0,0,.219.278,1.81,1.81,0,0,0,.266.226,2.226,2.226,0,0,0,.626.286,2.66,2.66,0,0,0,.329.068l.162.022.167.014.632.015,1.249.027c.833.015,1.667.034,2.5.044l1.248.017.625.008.312,0c.054,0,.1,0,.172,0s.118-.013.177-.017a2.343,2.343,0,0,0,1.268-.575,2.237,2.237,0,0,0,.445-.551,2.766,2.766,0,0,0,.327-.983l.012-.092.007-.08c.005-.056.01-.111.01-.167.005-.114.005-.216.008-.322v-.315l.007-1.249c0-.833,0-1.666,0-2.5l-.01-2.5,0-.624,0-.312v-.078c0-.008,0-.044,0-.072l-.005-.032,0-.02-.007-.048-.007-.042c0-.027-.012-.057-.02-.086a1.745,1.745,0,0,0-.046-.172c-.017-.057-.032-.113-.052-.167a2.633,2.633,0,0,0-.14-.324,2.428,2.428,0,0,0-.416-.588,2.062,2.062,0,0,0-.6-.435,2.162,2.162,0,0,0-.7-.206,3.337,3.337,0,0,0-.359-.017l-.31,0-.624.008c-.216,0-.433.007-.649.01l.032-.536.032-.6.017-.3a1.655,1.655,0,0,0,0-.2l0-.059-.008-.049-.017-.094,0-.012-.005-.013c-.017-.052-.027-.093-.049-.15a1.518,1.518,0,0,0-.079-.162,1.277,1.277,0,0,0-.211-.27,1.386,1.386,0,0,0-.261-.207,1.465,1.465,0,0,0-.309-.145l-.408-.032-.327-.01a1.652,1.652,0,0,0-.361.017,1.309,1.309,0,0,0-.381.12,1.015,1.015,0,0,0-.175.105,1.055,1.055,0,0,0-.157.138,1.1,1.1,0,0,0-.131.159.864.864,0,0,0-.054.088c-.017.03-.029.057-.044.087a1.356,1.356,0,0,0-.115.366c-.008.064-.02.123-.025.187,0,.031,0,.066,0,.1v.049l-.024,1.007c0,.086,0,.168,0,.258l.01.282a1.408,1.408,0,0,0,.01.143c.008.049.013.086.022.137s.022.111.039.17.035.1.05.14l.007.017.007.014.037.074a.923.923,0,0,0,.061.106,1.27,1.27,0,0,0,.153.177l.041.04.04.032q.041.03.1.064c.062.037.121.061.179.091l.012,0,.012,0c.044.015.1.034.138.044l.12.032a1,1,0,0,0,.2.03l.123,0,.492.01.258,0,.012.471.042,1.172.715.012.084-1.216.025-.425.836.012.491.008.246,0,.2,0,.022,0a.72.72,0,0,1,.258.071.606.606,0,0,1,.2.162,1.036,1.036,0,0,1,.145.258,1.188,1.188,0,0,1,.049.15c.008.027.014.052.02.076a.071.071,0,0,0,0,.022.156.156,0,0,1,0,.032c0,.014,0,.029,0,.042l-.015,2.291v2.408l.01,2.409,0,.3c0,.1,0,.2,0,.293a1.274,1.274,0,0,1-.008.138,1.041,1.041,0,0,1-.014.128,1.492,1.492,0,0,1-.062.24.947.947,0,0,1-.047.106c-.01.017-.02.035-.029.049l-.017.027-.012.022a1.056,1.056,0,0,1-.074.081.436.436,0,0,1-.081.069.788.788,0,0,1-.2.105c-.037.013-.076.022-.115.032a.47.47,0,0,1-.057.01l-.027,0h0Z" transform="translate(-2831.755 -2351.101)" fill="#32125b"/>
  <path id="Path_2" data-name="Path 2" d="M3867.782,2402.321l.624.017.064,0,.034,0,.03,0a1.142,1.142,0,0,1,.118.02.3.3,0,0,1,.047.01c.017.007.034.012.052.02a.861.861,0,0,1,.1.041.788.788,0,0,1,.292.313,1.34,1.34,0,0,1,.1.223l.01.029a.179.179,0,0,1,.01.035l.015.061c0,.02.009.04.012.056l0,.022v.018h0v.007h0c-.022,1.094-.034,2.187-.049,3.279l0,.42c0,.138,0,.29-.008.4,0,.03,0,.056,0,.091s0,.066-.009.1c-.01.064-.018.116-.032.172a1.072,1.072,0,0,1-.118.3.779.779,0,0,1-.088.115.576.576,0,0,1-.106.091c-.022.015-.041.027-.063.039a.364.364,0,0,1-.066.032.788.788,0,0,1-.147.05.467.467,0,0,1-.077.014l-.037.005c-.015,0-.007,0-.025,0l-.207,0-.417,0q-1.678-.007-3.355,0l-1.678.008-.838,0h-.083l-.111,0-.091-.01c-.022,0-.056-.007-.083-.012a1.019,1.019,0,0,1-.165-.039.543.543,0,0,1-.133-.062.267.267,0,0,1-.041-.029l-.01-.008-.019-.022a.09.09,0,0,1-.025-.032l-.015-.022-.013-.022a.4.4,0,0,1-.02-.044c-.008-.025-.015-.04-.02-.059-.01-.04-.017-.084-.024-.128a2.126,2.126,0,0,1-.015-.295l0-.165,0-.121-.034-2.578-.052-2.575v-.018l1.8.083,2.492.094Zm2.983,3.981-.024-1.575-.03-1.575v-.025l0-.037a.678.678,0,0,0-.009-.084c-.008-.047-.013-.076-.022-.115a1.993,1.993,0,0,0-.059-.219,2.493,2.493,0,0,0-.162-.418,2.352,2.352,0,0,0-.556-.737,2.087,2.087,0,0,0-.393-.268,2.016,2.016,0,0,0-.442-.165,2.16,2.16,0,0,0-.463-.066.786.786,0,0,0-.113,0h-.108l-.2,0-1.576.047c-1.052.027-2.1.068-3.153.108-.526.015-1.049.047-1.575.072l-.905.044-.042-1.784c-.022-.858-.052-1.718-.079-2.573a2,2,0,0,1,.054-.6,1.115,1.115,0,0,1,.266-.5,1.1,1.1,0,0,1,.489-.285.948.948,0,0,1,.142-.032c.025,0,.046-.007.066-.01l.078,0,.323-.012,2.573-.115c.86-.044,1.716-.086,2.576-.14l1.3-.091c.243-.017.484-.035.722-.047l.546-.029h0l-.518-.029c-.344-.02-.688-.042-1.04-.069-.526-.039-1.066-.076-1.587-.105q-1.575-.089-3.149-.157l-1.572-.069-.2-.009a1.92,1.92,0,0,0-.211,0,2.152,2.152,0,0,0-.413.073,2.039,2.039,0,0,0-.744.386,1.983,1.983,0,0,0-.519.668,2.494,2.494,0,0,0-.231.8,3.861,3.861,0,0,0-.032.408l-.012.393-.024.789q-.089,3.152-.147,6.3l-.022,1.575-.01.789,0,.393v.066a.258.258,0,0,1,0,.042v.037l0,.049c0,.067,0,.138,0,.207a2.749,2.749,0,0,0,.118.855,2.011,2.011,0,0,0,.187.416,1.8,1.8,0,0,0,.283.364,2.435,2.435,0,0,0,1.619.637c.157.008.281,0,.413.005l.393,0,.789,0,1.575,0,3.154-.009.4,0a1.8,1.8,0,0,0,.236-.022,1.784,1.784,0,0,0,.224-.042,2.45,2.45,0,0,0,.428-.146,2.266,2.266,0,0,0,.2-.1c.067-.037.131-.079.195-.123.029-.022.062-.044.094-.071a1.1,1.1,0,0,0,.086-.072,2.02,2.02,0,0,0,.17-.162c.047-.052.1-.113.148-.177a2.147,2.147,0,0,0,.128-.192,2.607,2.607,0,0,0,.316-.841c.015-.069.027-.15.035-.219s.014-.14.019-.209c.01-.143.01-.3.008-.425Z" transform="translate(-3783.847 -2357.677)" fill="#32125b"/>
  <path id="Path_3" data-name="Path 3" d="M3395.607,2413.817l-.007-.873-.005-.435v-.216l0-.064a.567.567,0,0,0-.012-.1.723.723,0,0,0-.064-.189.7.7,0,0,0-.111-.167l-.073-.081-.145-.162-.29-.324-.585-.646c-.779-.86-1.562-1.718-2.364-2.559l-.6-.634-.3-.315-.307-.312-1.232-1.238-.541.459,1.275,1.74,1.308,1.708.661.848.671.841,1.18,1.452c-.01,1.114-.024,2.227-.027,3.343l0,.9.007.907v.219c0,.029,0,.064,0,.1l-.012.1a1.164,1.164,0,0,1-.089.364.716.716,0,0,1-.494.427.893.893,0,0,1-.086.025c-.03,0-.059.01-.081.012l-.209.005-.452.012-.9.027c-.6.017-1.2.031-1.806.059s-1.2.047-1.806.076l-.9.047-.448.024a2.553,2.553,0,0,1-.43-.012l-.108-.02c-.037-.007-.074-.017-.108-.027a1,1,0,0,1-.2-.086.7.7,0,0,1-.275-.31,1.346,1.346,0,0,1-.115-.439c-.02-.155-.027-.317-.044-.49-.044-.543-.089-1.083-.14-1.627l-.084-.823c-.029-.285-.071-.558-.091-.823-.022.265-.064.538-.094.823l-.084.823q-.077.826-.14,1.652v.01c-.01.138-.024.278-.029.43a2.258,2.258,0,0,0,.015.449,1.789,1.789,0,0,0,.12.447,1.467,1.467,0,0,0,.252.4,1.744,1.744,0,0,0,.786.5,2.793,2.793,0,0,0,.445.106c.076.01.148.019.226.024l.115.01.108.005c1.157.069,2.318.108,3.478.155l1.74.054.87.02.219,0a2.077,2.077,0,0,0,.238,0c.083-.005.167-.018.243-.03a1.994,1.994,0,0,0,.241-.057,2.279,2.279,0,0,0,.863-.455,2.091,2.091,0,0,0,.342-.359,2.291,2.291,0,0,0,.256-.423,2.8,2.8,0,0,0,.164-.459,3.574,3.574,0,0,0,.079-.474,4.412,4.412,0,0,0,.024-.462l0-.435c.005-.578,0-1.16-.01-1.74Z" transform="translate(-3320.808 -2368.275)" fill="#32125b"/>
  <path id="Path_4" data-name="Path 4" d="M2394.11,2380.8a1.814,1.814,0,0,0-.423-.533,1.962,1.962,0,0,0-.58-.342,2.64,2.64,0,0,0-.632-.157,1.512,1.512,0,0,0-.159-.017l-.152-.012-.311-.005-.592-.007-2.375-.032c-.791,0-1.583-.015-2.377-.012h-.889c-.052,0-.093,0-.162,0s-.12.01-.174.017a2.425,2.425,0,0,0-.652.182,2.257,2.257,0,0,0-.584.361,2.316,2.316,0,0,0-.448.521,2.387,2.387,0,0,0-.275.625c-.017.056-.029.1-.042.154s-.024.108-.032.162a3.073,3.073,0,0,0-.04.332,2.924,2.924,0,0,0-.012.327l0,.3.049,2.374.054,2.374.029,1.187.044,1.187c.064,1.583.137,3.168.255,4.751h.713c.131-1.9.216-3.8.285-5.707.032-.951.044-1.9.064-2.854l.057-2.853.014-.713a1.8,1.8,0,0,1,.082-.6.7.7,0,0,1,.3-.4.789.789,0,0,1,.236-.1.9.9,0,0,1,.128-.022c.017,0,.1,0,.15,0l2.853-.012,2.851-.037.713-.01.032,0,.044,0,.079,0c.056,0,.111.01.16.017a.672.672,0,0,1,.071.012l.076.017a1.074,1.074,0,0,1,.128.047.421.421,0,0,1,.182.143.72.72,0,0,1,.091.248,1.843,1.843,0,0,1,.03.317l0,.175c0,.058,0,.12.007.189l.046,1.474.054,1.521.143,3.043.184,3.04c.039.518.086,1.037.133,1.543.025.251.047.5.067.75s.031.494.049.742c.017-.238.034-.477.049-.715.012-.147.022-.295.037-.445l.108-1.189.049-.6c.015-.2.025-.4.04-.595l.072-1.184.071-1.185c.022-.4.039-.791.057-1.187.037-.789.079-1.581.108-2.372l.042-1.187.037-1.189.01-.3c0-.022,0-.054,0-.074v-.066l0-.15a3.262,3.262,0,0,0-.032-.634A2.079,2.079,0,0,0,2394.11,2380.8Z" transform="translate(-2343.872 -2343.094)" fill="#32125b"/>
  <path id="Path_5" data-name="Path 5" d="M4364.712,2381.435a2.1,2.1,0,0,0-.2-.632,1.83,1.83,0,0,0-.422-.533,1.943,1.943,0,0,0-.581-.342,2.511,2.511,0,0,0-.312-.1,2.416,2.416,0,0,0-.319-.059,1.535,1.535,0,0,0-.159-.017l-.153-.012-.309-.005-.592-.007-2.374-.032c-.792,0-1.583-.015-2.374-.012h-.892c-.05,0-.094,0-.163,0s-.12.01-.174.017a2.407,2.407,0,0,0-.651.182,2.264,2.264,0,0,0-.585.361,2.325,2.325,0,0,0-.447.521,2.571,2.571,0,0,0-.276.625c-.017.056-.029.1-.041.154s-.024.108-.032.162a2.842,2.842,0,0,0-.039.332,2.813,2.813,0,0,0-.013.327l0,.3.049,2.374.055,2.374.03,1.187.042,1.187c.064,1.583.137,3.168.255,4.751h.713c.13-1.9.219-3.8.285-5.707.032-.951.044-1.9.063-2.854l.057-2.853.015-.713a1.8,1.8,0,0,1,.084-.6.7.7,0,0,1,.3-.4.771.771,0,0,1,.238-.1.846.846,0,0,1,.128-.022c.015,0,.094,0,.147,0l2.854-.012,2.851-.037.713-.01.032,0,.043,0,.081,0c.055,0,.111.01.16.017.025,0,.046.008.069.012l.076.017a.953.953,0,0,1,.128.047.426.426,0,0,1,.182.143.665.665,0,0,1,.091.248,1.594,1.594,0,0,1,.029.317l.005.175c0,.058,0,.12.007.189l.047,1.474.054,1.521.143,3.043.184,3.04c.04.518.086,1.037.135,1.543.021.251.044.5.064.75s.031.494.049.742c.017-.238.034-.477.049-.715.011-.147.023-.295.036-.445l.109-1.189.049-.6c.017-.2.026-.4.039-.595l.073-1.184.072-1.185c.022-.4.037-.791.057-1.187.034-.789.076-1.581.106-2.372l.042-1.187.037-1.189.01-.3c0-.022,0-.054,0-.074l0-.066,0-.15A2.917,2.917,0,0,0,4364.712,2381.435Z" transform="translate(-4265.749 -2343.094)" fill="#32125b"/>
  <path id="Path_6" data-name="Path 6" d="M1183.05,1435.859l-.047-2.045-.054-2.195,2.057-.054,2.219-.066.128,3.908.012.369Zm17.568,5.653-2.433-2.795-2.441-2.792-.017-.017a.764.764,0,0,0-.587-.263l-3.161.047-3.163.054-1.145.022.012-.361.14-4.22a.294.294,0,0,0-.285-.3h-.02l-2.512-.074-2.514-.066a.432.432,0,0,0-.443.423l0,.022-.064,2.627-.062,2.627v0a.557.557,0,0,0,.546.568h.025l4.925.1.015.406c.027.7.054,1.406.086,2.109.032-.7.059-1.406.086-2.109l.015-.4,1.2.025,3.163.054,2.782.039,2.138,2.581,1.885,2.264-3.313,3.837c-1.268,1.465-2.527,2.939-3.787,4.409l-1.89,2.207-1.885,2.215-2.994,3.522-2.841-3.5-3.605-4.414-3.615-4.4-3.217-3.9,3.082-4.291,3.456-4.844c1.145-1.617,2.3-3.234,3.436-4.856l3.124-4.451,1.6,1.873,1.954,2.274c.651.757,1.3,1.516,1.956,2.271s1.31,1.509,1.971,2.259c-.59-.806-1.189-1.607-1.784-2.409s-1.2-1.6-1.8-2.4l-1.8-2.4-1.811-2.386a.412.412,0,0,0-.071-.074.4.4,0,0,0-.556.071l-.012.015-3.652,4.7c-1.216,1.566-2.421,3.141-3.632,4.711l-3.613,4.726-3.6,4.739a.837.837,0,0,0,.01,1.022l.012.017,3.539,4.466,3.549,4.458,3.564,4.446,3.574,4.439a1.335,1.335,0,0,0,.13.133.988.988,0,0,0,1.389-.113l0,0,3.758-4.431,1.878-2.219,1.87-2.224c1.246-1.482,2.5-2.962,3.738-4.451l3.724-4.463.012-.012a.875.875,0,0,0-.012-1.133Z" transform="translate(-1160.287 -1409.471)" fill="#32125b"/>
  <path id="Path_7" data-name="Path 7" d="M786.2,924.222c1.841-2.615,3.6-5.124,5.368-7.624,1.656-2.337,3.306-4.682,4.992-6.98.7-.953.418-2.1.464-3.153.116-2.649.118-5.306.123-7.961,0-.673.162-.88.673-.865q1.884.052,3.768,0c.514-.014.705.2.678.873a15.223,15.223,0,0,0,.16,2.966c.334-.418.678-.826,1.005-1.256,2.254-2.961,4.51-5.918,6.744-8.9.383-.509.619-.612,1.064-.061,2.922,3.62,5.874,7.2,8.816,10.789q6.5,7.933,13,15.869a6.015,6.015,0,0,1,.342.568,6.275,6.275,0,0,1-.713.1c-2.463.017-4.925.052-7.388.015a1.594,1.594,0,0,1-1.1-.556c-3.139-3.74-6.25-7.518-9.369-11.286-1.4-1.686-2.8-3.367-4.294-5.169-5.446,7.366-10.87,14.7-16.376,22.151,6.036,7.439,12.031,14.825,18.072,22.269l-4.218,4.884C800.747,942.008,793.507,933.156,786.2,924.222Z" transform="translate(-786.2 -890.891)" fill="#ff613b"/>
</svg>
