<svg xmlns="http://www.w3.org/2000/svg" width="13" height="18" viewBox="0 0 13 18"><defs><style>.a{fill:#171717;opacity:0.3;}</style></defs><path class="a" d="M12.159,14.861l-.139-.108a.715.715,0,0,0-.167-.081l-.167-.072a.948.948,0,0,0-.845.243,1.031,1.031,0,0,0-.195.3.88.88,0,0,0,.2.979.95.95,0,0,0,1.009.2,1.36,1.36,0,0,0,.306-.2.88.88,0,0,0,.195-.981A.9.9,0,0,0,12.159,14.861ZM15.214,2H7.786A2.744,2.744,0,0,0,5,4.7V17.3A2.744,2.744,0,0,0,7.786,20h7.429A2.744,2.744,0,0,0,18,17.3V4.7A2.744,2.744,0,0,0,15.214,2Zm.929,15.3a.915.915,0,0,1-.929.9H7.786a.915.915,0,0,1-.929-.9V4.7a.915.915,0,0,1,.929-.9h7.429a.915.915,0,0,1,.929.9Z" transform="translate(-5 -2)"/></svg>